<?xml version="1.0" standalone="no"?>
<!DOCTYPE svg PUBLIC "-//W3C//DTD SVG 20010904//EN"
 "http://www.w3.org/TR/2001/REC-SVG-20010904/DTD/svg10.dtd">
<svg version="1.0" xmlns="http://www.w3.org/2000/svg"
 width="16.000000pt" height="16.000000pt" viewBox="0 0 16.000000 16.000000"
 preserveAspectRatio="xMidYMid meet">
<metadata>
Created by potrace 1.11, written by Peter Selinger 2001-2013
</metadata>
<g transform="translate(0.000000,16.000000) scale(0.002000,-0.002000)"
fill="#000000" stroke="none">
<path d="M3768 7745 c-2 -2 -42 -6 -90 -10 -49 -3 -96 -8 -105 -9 -10 -2 -43
-7 -74 -10 -31 -4 -65 -8 -75 -10 -11 -2 -39 -7 -64 -11 -25 -4 -54 -9 -65
-11 -11 -2 -31 -6 -45 -9 -278 -53 -610 -166 -895 -305 -242 -118 -589 -341
-739 -475 -6 -5 -43 -37 -81 -70 -81 -70 -262 -248 -326 -320 -24 -28 -58 -66
-74 -85 -214 -244 -444 -620 -587 -955 -83 -194 -187 -520 -212 -660 -2 -16
-12 -66 -21 -110 -9 -44 -18 -93 -20 -110 -2 -16 -9 -61 -14 -100 -32 -220
-36 -767 -7 -921 2 -10 7 -41 10 -69 7 -54 11 -77 21 -142 4 -24 7 -46 7 -50
0 -5 4 -18 9 -30 5 -13 11 -44 15 -70 3 -27 8 -51 11 -56 2 -4 6 -17 9 -30 10
-56 15 -73 39 -154 104 -341 218 -604 372 -861 37 -62 73 -121 78 -130 37 -65
222 -314 286 -387 108 -123 144 -162 238 -255 378 -375 860 -680 1351 -855 41
-15 91 -33 110 -40 59 -22 289 -82 400 -105 130 -27 124 -26 190 -35 30 -4 64
-9 75 -12 11 -2 45 -6 75 -8 30 -3 93 -9 140 -14 86 -9 562 -7 635 3 22 3 60
8 85 10 79 9 134 17 185 26 28 5 66 12 85 15 192 32 533 134 745 223 106 44
258 118 370 180 88 48 358 220 403 257 9 7 53 42 97 76 149 116 353 307 488
457 97 108 367 466 367 487 0 2 14 24 30 48 17 25 30 48 30 51 0 3 15 29 33
58 18 29 61 112 96 183 35 72 67 138 73 149 47 90 180 479 203 596 2 8 8 35
15 60 12 45 16 62 25 110 2 14 9 50 15 80 6 30 13 69 15 85 2 17 9 62 14 100
33 224 36 769 6 925 -2 12 -7 48 -10 79 -4 31 -8 63 -11 72 -3 9 -7 34 -10 55
-2 22 -6 46 -9 54 -2 8 -7 29 -10 45 -5 33 -8 46 -24 120 -27 120 -109 375
-172 535 -75 191 -194 421 -329 635 -342 543 -894 1034 -1494 1329 -302 148
-676 274 -956 321 -19 3 -60 10 -90 15 -98 16 -194 28 -325 39 -84 7 -510 12
-517 6z m517 -135 c830 -70 1571 -395 2173 -953 747 -692 1162 -1641 1162
-2657 0 -853 -293 -1665 -836 -2314 -697 -834 -1702 -1306 -2784 -1306 -1108
0 -2137 496 -2832 1365 -1051 1313 -1051 3197 0 4510 628 785 1532 1268 2532
1354 139 12 447 12 585 1z"/>
<path d="M4053 7266 c-167 -78 -194 -377 -43 -481 102 -71 258 -71 361 -2 l34
23 5 102 5 102 -35 0 c-19 0 -72 3 -117 7 l-83 6 0 -37 c0 -33 2 -36 29 -36
15 0 49 -3 75 -6 l46 -7 0 -43 c0 -52 -20 -69 -101 -86 -177 -36 -291 134
-211 315 28 64 72 91 152 95 84 4 127 -17 155 -76 18 -39 22 -42 50 -36 16 3
32 8 33 9 8 7 -10 62 -29 93 -47 79 -216 109 -326 58z"/>
<path d="M4631 7203 c-40 -153 -124 -469 -128 -478 -3 -10 66 -39 74 -31 2 2
17 52 32 110 16 59 31 109 33 111 7 7 108 -23 125 -37 21 -17 55 -94 83 -190
l22 -76 45 -12 c25 -6 47 -9 49 -7 6 6 -64 207 -85 243 l-20 33 45 7 c53 8 92
36 110 80 31 75 6 157 -58 190 -18 10 -89 32 -158 51 -69 19 -133 36 -142 39
-13 4 -19 -4 -27 -33z m172 -77 c48 -14 99 -32 112 -40 50 -33 41 -103 -17
-135 -24 -14 -35 -13 -120 7 -121 29 -123 31 -110 73 6 19 16 53 22 77 6 23
14 42 18 42 4 0 47 -11 95 -24z"/>
<path d="M3273 7220 c-124 -29 -204 -147 -189 -277 16 -138 95 -249 194 -272
95 -23 217 17 266 87 20 30 51 130 43 139 -1 1 -20 3 -42 5 -38 3 -39 2 -46
-35 -12 -75 -54 -118 -130 -132 -52 -10 -120 22 -153 72 -62 94 -69 227 -14
288 65 75 165 82 226 18 l33 -36 35 17 c39 18 37 31 -13 78 -54 51 -126 68
-210 48z"/>
<path d="M5235 7041 c-4 -7 -170 -399 -202 -479 -3 -7 10 -18 32 -28 20 -8 38
-14 39 -12 6 9 206 494 206 500 0 3 -14 11 -31 17 -38 13 -36 13 -44 2z"/>
<path d="M2661 7014 l-34 -14 6 -128 c20 -389 21 -435 6 -427 -8 5 -114 75
-235 156 l-221 148 -35 -24 -35 -24 49 -208 c27 -114 56 -241 65 -280 9 -40
20 -73 25 -73 6 0 23 9 38 20 l28 20 -22 82 -23 83 90 62 89 62 74 -50 74 -50
34 26 c18 14 47 30 65 36 l33 12 -3 89 -4 89 89 39 c48 22 93 40 99 40 6 0 37
-26 69 -57 l57 -56 41 13 c22 7 40 17 40 21 0 8 -406 403 -418 406 -4 1 -22
-4 -41 -13z m199 -253 c0 -9 -118 -61 -137 -61 -9 0 -13 20 -13 69 0 37 -3 90
-6 117 l-5 49 80 -83 c45 -46 81 -87 81 -91z m-470 -251 c0 -6 -131 -92 -134
-88 -3 3 -56 215 -56 223 0 2 43 -26 95 -63 52 -37 95 -69 95 -72z"/>
<path d="M5345 6723 c-71 -125 -131 -231 -133 -237 -2 -11 325 -206 345 -206
5 0 15 12 22 27 15 33 22 27 -144 123 l-124 71 41 72 c23 40 42 73 43 75 1 1
60 -31 131 -72 l128 -75 19 31 c10 17 17 32 15 33 -2 2 -55 33 -118 70 -63 36
-119 70 -124 75 -8 8 46 114 65 125 5 4 68 -28 140 -69 72 -42 132 -76 134
-76 6 0 37 61 33 64 -10 8 -338 196 -340 196 -2 -1 -61 -103 -133 -227z"/>
<path d="M5932 6625 l-21 -27 59 -49 c32 -26 61 -53 65 -59 3 -5 -62 -90 -144
-187 l-150 -178 27 -22 c15 -13 30 -23 34 -23 4 0 69 73 144 163 75 89 143
168 150 176 11 13 22 7 71 -35 79 -68 79 -68 102 -35 l21 28 -160 134 c-88 74
-164 135 -169 137 -5 2 -18 -9 -29 -23z"/>
<path d="M3765 6008 c1 -150 2 -276 3 -280 1 -5 31 -8 67 -8 l65 0 0 -50 0
-50 100 -1 c55 -1 106 -2 113 -3 8 -1 13 17 15 51 l3 52 67 3 67 3 3 278 2
277 -253 0 -254 0 2 -272z"/>
<path d="M3932 5498 c-207 -23 -386 -174 -454 -383 -16 -49 -19 -81 -16 -175
4 -111 5 -118 45 -200 75 -155 172 -239 338 -296 79 -27 243 -25 320 4 167 64
290 185 343 337 l20 60 -160 3 -160 3 -38 -40 c-56 -58 -94 -74 -170 -74 -79
1 -107 11 -159 58 -108 98 -92 278 32 362 38 25 51 28 123 28 71 0 85 -3 123
-28 23 -15 54 -45 69 -67 l27 -39 158 -1 c86 0 157 4 157 9 0 22 -41 131 -66
175 -34 61 -127 155 -188 191 -103 60 -226 87 -344 73z"/>
<path d="M3456 4518 c-8 -18 -42 -103 -76 -188 -33 -85 -67 -168 -74 -185 -7
-16 -21 -51 -31 -77 l-18 -48 -148 0 -148 0 -3 33 -3 32 -110 0 -110 0 -3
-108 -3 -108 113 3 113 3 3 28 3 27 130 0 129 0 -20 -52 c-11 -29 -25 -62 -30
-73 -14 -29 -70 -175 -70 -181 0 -3 27 -2 59 2 81 9 156 -15 210 -67 23 -22
41 -44 41 -50 0 -6 7 -9 16 -7 16 3 64 109 161 361 l26 67 144 0 143 0 0 -110
c0 -104 1 -112 25 -135 15 -16 36 -25 55 -25 19 0 40 9 55 25 24 23 25 31 25
135 l0 111 141 -3 141 -3 34 -90 c19 -49 38 -99 44 -110 8 -18 50 -123 80
-202 15 -40 32 -42 55 -5 45 69 112 103 213 107 40 2 75 5 78 7 3 4 -30 97
-56 153 -5 11 -20 48 -34 83 l-25 62 134 0 134 0 3 -27 3 -28 113 -3 113 -3
-3 108 -3 108 -110 0 -110 0 -3 -32 -3 -33 -153 0 -152 0 -13 38 c-7 20 -19
51 -26 67 -8 17 -28 66 -45 110 -18 44 -36 89 -41 100 -4 11 -18 45 -29 75
-27 73 -41 100 -53 100 -5 0 -33 -21 -62 -47 -46 -41 -118 -84 -212 -126 -23
-10 -31 -44 -15 -62 5 -6 21 -44 37 -85 15 -41 36 -94 46 -117 11 -23 19 -44
19 -47 0 -4 -54 -6 -119 -6 l-119 0 -3 86 c-4 97 -16 114 -79 114 -63 0 -75
-17 -79 -114 l-3 -86 -124 0 -123 0 13 38 c21 56 85 215 96 234 19 34 11 54
-25 67 -50 18 -177 105 -212 144 -44 50 -50 51 -67 15z"/>
<path d="M3110 3488 c-122 -84 -66 -273 80 -273 52 0 87 19 124 68 29 40 28
122 -3 165 -46 65 -138 83 -201 40z"/>
<path d="M4695 3491 c-48 -28 -69 -68 -69 -128 0 -86 60 -148 144 -148 146 0
202 189 80 273 -42 28 -112 30 -155 3z"/>
<path d="M920 3313 c-140 -41 -256 -76 -258 -78 -2 -1 23 -90 54 -197 l57
-195 33 10 c19 6 34 13 34 16 0 3 -20 73 -45 156 -24 82 -42 151 -40 153 2 2
39 14 82 27 l78 23 22 -72 c12 -39 31 -103 43 -143 l20 -72 33 11 c17 6 33 12
34 12 1 1 -16 62 -38 135 -21 74 -39 137 -39 141 0 8 140 54 145 48 1 -2 21
-68 44 -148 23 -79 43 -146 45 -147 6 -6 66 10 66 17 0 16 -102 365 -109 371
-3 3 -121 -27 -261 -68z"/>
<path d="M6843 3330 c-92 -55 -132 -227 -73 -310 26 -36 93 -63 134 -54 52 11
82 40 144 142 67 109 95 131 140 110 44 -21 57 -61 42 -127 -17 -77 -70 -131
-128 -131 -37 0 -40 -2 -45 -32 -6 -44 -3 -48 45 -48 89 0 155 57 191 164 22
65 21 121 -3 173 -25 56 -70 83 -137 83 -44 0 -58 -5 -88 -31 -20 -18 -54 -64
-77 -103 -72 -126 -106 -149 -153 -101 -27 26 -30 50 -14 108 16 59 59 101
103 101 26 0 36 4 36 16 0 8 3 25 6 38 6 21 3 22 -42 22 -31 0 -61 -7 -81 -20z"/>
<path d="M2936 2988 c-8 -254 -19 -224 99 -270 69 -27 95 -30 95 -8 0 6 32 90
70 187 39 97 70 182 70 190 0 10 -19 13 -75 13 -86 0 -148 25 -199 79 -17 17
-35 31 -41 31 -9 0 -14 -64 -19 -222z"/>
<path d="M4959 3174 c-13 -14 -46 -37 -73 -51 -43 -22 -60 -25 -128 -21 -64 3
-78 1 -78 -12 0 -18 145 -379 158 -392 7 -7 99 23 161 55 l24 12 -6 205 c-4
113 -7 211 -7 218 0 20 -25 14 -51 -14z"/>
<path d="M1105 2772 c-126 -65 -235 -121 -242 -125 -9 -6 -8 -16 4 -42 l17
-35 184 95 183 95 -29 -52 c-16 -29 -71 -126 -121 -216 l-91 -163 16 -32 c9
-18 18 -33 19 -35 3 -3 444 217 473 237 12 7 11 14 -2 40 -9 17 -19 31 -23 31
-3 0 -85 -40 -181 -90 -96 -49 -172 -84 -169 -76 3 7 56 103 117 212 l111 199
-18 37 -18 37 -230 -117z"/>
<path d="M6567 2705 l-87 -175 240 -120 c132 -66 242 -120 245 -120 4 0 185
355 185 364 0 6 -60 29 -64 25 -2 -2 -36 -68 -75 -146 l-71 -143 -75 37 c-41
21 -75 41 -75 45 0 5 29 66 64 137 l65 128 -25 12 c-14 6 -29 11 -34 11 -6 0
-39 -59 -75 -130 l-65 -130 -70 35 -70 35 71 141 c38 78 69 142 67 144 -9 7
-48 25 -55 25 -5 0 -48 -79 -96 -175z"/>
<path d="M4973 2599 c-24 -10 -43 -24 -43 -31 0 -7 19 -64 42 -127 50 -132 68
-152 117 -126 22 11 31 23 31 40 0 29 -76 235 -93 251 -9 9 -23 7 -54 -7z"/>
<path d="M2930 2598 c-1 -7 -3 -38 -5 -68 -17 -228 -13 -283 15 -230 19 36 89
254 84 262 -5 8 -78 48 -89 48 -3 0 -5 -6 -5 -12z"/>
<path d="M6421 2430 l-22 -30 135 -210 c74 -116 127 -206 118 -202 -9 5 -115
39 -235 77 l-219 68 -24 -29 c-13 -16 -23 -32 -24 -35 0 -3 126 -42 280 -86
l280 -80 21 28 c11 16 19 35 17 43 -4 18 -292 486 -299 486 -3 0 -15 -14 -28
-30z"/>
<path d="M1462 2279 c-69 -27 -152 -108 -177 -172 -22 -59 -17 -155 13 -213
40 -78 153 -165 228 -176 21 -3 174 107 174 126 0 12 -133 176 -143 176 -5 0
-20 -8 -33 -19 l-24 -19 50 -62 50 -62 -36 -29 c-20 -16 -39 -29 -41 -29 -12
0 -91 45 -111 64 -38 34 -65 96 -66 148 0 115 161 238 273 208 65 -17 141
-108 141 -169 0 -11 -8 -37 -17 -57 -17 -36 -17 -36 6 -55 31 -25 42 -21 63
22 72 140 -71 340 -241 338 -31 0 -80 -9 -109 -20z"/>
<path d="M3512 2218 c-8 -30 -7 -38 4 -38 8 0 14 5 14 10 0 6 9 19 20 30 35
35 40 25 40 -79 0 -86 -2 -100 -17 -104 -10 -3 7 -5 37 -6 42 0 51 2 38 10
-15 8 -18 25 -18 104 0 62 4 95 11 95 6 0 24 -14 40 -31 35 -37 45 -33 30 13
l-11 33 -89 0 -90 0 -9 -37z"/>
<path d="M4770 2255 c0 0 -4 -15 -9 -33 -7 -24 -7 -32 4 -32 7 0 15 9 18 20 4
17 14 20 57 20 l52 0 -18 -27 c-36 -55 -62 -109 -69 -140 -6 -29 -4 -33 14
-33 15 0 23 10 32 42 10 41 45 113 71 150 7 9 10 19 8 21 -4 3 -160 15 -160
12z"/>
<path d="M3073 2239 c14 -8 17 -25 17 -99 0 -74 -3 -91 -17 -99 -13 -8 11 -10
87 -8 l104 2 10 33 c10 35 0 57 -14 32 -24 -43 -39 -52 -83 -57 l-47 -6 0 52
c0 45 2 51 21 51 12 0 23 -8 26 -20 10 -40 33 -22 33 25 0 33 -4 45 -15 45 -8
0 -15 -6 -15 -14 0 -13 -20 -26 -41 -26 -5 0 -9 20 -9 45 l0 45 40 0 c39 0 80
-26 80 -50 0 -5 6 -10 14 -10 12 0 12 6 3 35 l-10 35 -101 0 c-74 -1 -96 -3
-83 -11z"/>
<path d="M3332 2234 c-26 -18 -29 -55 -4 -76 9 -9 41 -23 70 -33 62 -20 75
-40 42 -67 -29 -23 -56 -16 -91 23 -32 36 -39 36 -39 2 0 -42 9 -48 79 -51 54
-3 67 0 87 19 45 43 25 82 -56 108 -64 21 -84 45 -56 67 28 20 34 18 73 -21
40 -40 58 -45 49 -12 -3 12 -6 30 -6 40 0 14 -10 17 -63 17 -40 0 -70 -5 -85
-16z"/>
<path d="M3743 2239 c14 -8 17 -25 17 -99 0 -74 -3 -91 -17 -99 -13 -8 7 -10
74 -11 82 0 95 3 119 23 21 18 28 35 32 75 4 49 2 54 -31 87 -35 35 -35 35
-123 35 -66 -1 -84 -3 -71 -11z m131 -9 c35 -13 60 -68 52 -113 -8 -44 -34
-67 -85 -74 l-41 -6 0 102 c0 100 0 101 24 101 14 0 36 -4 50 -10z"/>
<path d="M4190 2238 c-25 -11 -25 -11 -2 -15 21 -4 22 -9 22 -89 0 -78 -2 -85
-22 -94 -17 -6 -6 -9 42 -8 36 0 55 3 43 5 -22 4 -23 8 -23 109 0 114 -2 117
-60 92z"/>
<path d="M4360 2230 c-26 -26 -26 -74 1 -101 16 -16 30 -20 65 -17 70 5 51
-43 -26 -67 l-45 -14 37 0 c68 -2 108 30 122 97 9 39 -9 99 -34 112 -33 17
-98 12 -120 -10z m92 -7 c22 -20 23 -61 1 -85 -20 -22 -31 -23 -55 -1 -25 23
-23 68 4 87 28 20 27 20 50 -1z"/>
<path d="M4560 2230 c-26 -26 -26 -74 1 -101 16 -16 30 -20 65 -17 70 5 51
-43 -26 -67 l-45 -14 37 0 c68 -2 108 30 122 97 9 39 -9 99 -34 112 -33 17
-98 12 -120 -10z m92 -7 c22 -20 23 -61 1 -85 -20 -22 -31 -23 -55 -1 -25 23
-23 68 4 87 28 20 27 20 50 -1z"/>
<path d="M4000 2110 c0 -5 25 -10 55 -10 30 0 55 5 55 10 0 6 -25 10 -55 10
-30 0 -55 -4 -55 -10z"/>
<path d="M6056 1981 l-27 -28 191 -186 c105 -103 194 -187 199 -187 4 0 18 11
31 25 l24 26 -139 140 c-77 77 -165 162 -196 189 l-56 49 -27 -28z"/>
<path d="M1829 1733 c-96 -103 -178 -193 -182 -200 -6 -10 -1 -23 14 -39 12
-13 25 -24 29 -24 9 0 370 388 370 398 0 4 -13 18 -29 29 l-28 21 -174 -185z"/>
<path d="M2013 1558 c-82 -117 -152 -218 -156 -225 -4 -6 6 -19 25 -31 l32
-20 114 161 c63 89 117 164 119 167 3 3 2 -106 -2 -241 l-7 -246 31 -23 c18
-12 34 -20 37 -17 3 3 75 103 160 223 l154 218 -31 20 c-38 24 -29 32 -165
-159 l-106 -150 6 245 6 246 -29 22 c-17 12 -32 22 -34 22 -2 0 -71 -96 -154
-212z"/>
<path d="M5715 1696 l-30 -24 41 -48 c22 -27 97 -120 167 -206 70 -87 131
-159 136 -162 5 -4 215 157 263 203 4 3 -3 19 -16 35 l-23 29 -102 -83 c-59
-48 -105 -80 -110 -74 -5 5 -70 86 -146 179 -76 94 -140 171 -144 172 -3 2
-19 -8 -36 -21z"/>
<path d="M2525 1223 c-59 -131 -109 -243 -112 -249 -4 -10 339 -174 364 -174
6 0 16 14 22 31 l10 30 -67 31 c-37 17 -104 47 -149 67 l-81 37 30 69 c17 39
34 74 38 78 4 5 67 -18 139 -51 l131 -60 16 30 c8 16 13 32 10 35 -5 6 -202
97 -243 114 l-22 8 31 68 c17 37 32 69 33 71 1 1 67 -27 145 -63 156 -70 158
-71 164 -5 1 8 -334 170 -350 170 -1 0 -50 -107 -109 -237z"/>
<path d="M5195 1396 c-115 -53 -160 -120 -159 -236 0 -84 21 -144 74 -210 96
-121 293 -119 415 4 83 85 85 91 41 188 -21 46 -42 87 -47 92 -5 6 -50 -10
-113 -38 l-105 -48 15 -29 c8 -16 18 -29 23 -29 5 0 38 13 74 29 l65 29 17
-43 c18 -49 14 -64 -32 -106 -54 -51 -128 -76 -189 -64 -74 13 -151 119 -161
219 -7 73 25 132 92 168 68 37 120 37 172 -1 l39 -28 28 24 28 23 -33 31 c-43
40 -68 49 -137 49 -39 0 -73 -8 -107 -24z"/>
<path d="M3061 998 c-35 -139 -64 -258 -66 -265 -4 -12 381 -111 391 -100 2 2
8 17 13 33 l8 30 -158 37 c-88 21 -159 43 -159 48 0 19 33 144 40 152 4 4 69
-8 146 -27 76 -19 140 -33 142 -31 2 2 5 18 5 36 l2 33 -133 32 c-74 18 -136
35 -139 38 -6 6 27 146 34 146 3 0 70 -16 150 -35 80 -19 149 -33 153 -30 4 3
10 18 12 34 l4 29 -170 41 c-94 23 -180 44 -192 47 -20 5 -25 -8 -83 -248z"/>
<path d="M4782 1233 c-17 -3 -21 -9 -17 -26 24 -101 83 -372 81 -374 -1 -1
-81 74 -177 167 l-176 169 -37 -10 c-20 -5 -36 -16 -36 -23 0 -16 110 -509
115 -514 1 -2 19 0 39 4 28 5 35 10 32 23 -9 28 -85 375 -83 377 1 2 81 -73
177 -165 171 -164 175 -168 208 -160 19 4 36 10 39 13 3 3 -21 122 -52 265
-62 276 -56 265 -113 254z"/>
<path d="M3627 1023 c-4 -65 -10 -189 -13 -275 l-7 -158 35 0 c44 0 48 8 48
113 0 126 1 128 69 121 31 -3 67 -14 81 -23 14 -9 54 -65 89 -124 l64 -107 49
0 50 0 -20 33 c-11 17 -36 61 -57 97 -20 36 -51 80 -68 98 -30 31 -30 32 -8
32 12 0 35 7 52 15 95 49 92 220 -4 260 -18 7 -73 16 -123 20 -49 3 -121 8
-160 10 l-71 6 -6 -118z m272 31 c87 -14 110 -112 34 -152 -23 -13 -150 -16
-202 -6 -34 7 -37 19 -25 120 l6 51 77 -4 c42 -2 91 -6 110 -9z"/>
<path d="M4207 1133 c-3 -5 5 -127 17 -273 l22 -265 33 2 c18 0 35 4 39 7 5 6
-21 375 -35 489 -5 45 -7 47 -39 47 -18 0 -35 -3 -37 -7z"/>
</g>
</svg>
